<?xml version="1.0" encoding="utf-8"?>
<!-- Generator: Adobe Illustrator 16.0.3, SVG Export Plug-In . SVG Version: 6.00 Build 0)  -->
<!DOCTYPE svg PUBLIC "-//W3C//DTD SVG 1.0//EN" "http://www.w3.org/TR/2001/REC-SVG-20010904/DTD/svg10.dtd">
<svg version="1.0" id="Layer_1" xmlns="http://www.w3.org/2000/svg" xmlns:xlink="http://www.w3.org/1999/xlink" x="0px" y="0px"
	 width="17px" height="20px" viewBox="0 0 17 20" enable-background="new 0 0 17 20" xml:space="preserve">
<path fill="#496A87" d="M6,16.4C6,16.73,5.73,17,5.4,17H3.6C3.27,17,3,16.73,3,16.4V15.6C3,15.27,3.27,15,3.6,15H5.4
	C5.73,15,6,15.27,6,15.6V16.4z"/>
<path fill="#496A87" d="M10,16.4c0,0.33-0.27,0.6-0.6,0.6H7.6C7.27,17,7,16.73,7,16.4V15.6C7,15.27,7.27,15,7.6,15H9.4
	c0.33,0,0.6,0.27,0.6,0.6V16.4z"/>
<path fill="#496A87" d="M14,16.4c0,0.33-0.27,0.6-0.6,0.6H11.6c-0.33,0-0.6-0.27-0.6-0.6V15.6c0-0.33,0.27-0.6,0.6-0.6H13.4
	c0.33,0,0.6,0.27,0.6,0.6V16.4z"/>
<path fill="#496A87" d="M6,13.4C6,13.73,5.73,14,5.4,14H3.6C3.27,14,3,13.73,3,13.4V12.6C3,12.27,3.27,12,3.6,12H5.4
	C5.73,12,6,12.27,6,12.6V13.4z"/>
<path fill="#496A87" d="M10,13.4c0,0.33-0.27,0.6-0.6,0.6H7.6C7.27,14,7,13.73,7,13.4V12.6C7,12.27,7.27,12,7.6,12H9.4
	c0.33,0,0.6,0.27,0.6,0.6V13.4z"/>
<path fill="#496A87" d="M14,13.4c0,0.33-0.27,0.6-0.6,0.6H11.6c-0.33,0-0.6-0.27-0.6-0.6V12.6c0-0.33,0.27-0.6,0.6-0.6H13.4
	c0.33,0,0.6,0.27,0.6,0.6V13.4z"/>
<path fill="#496A87" d="M6,10.4C6,10.73,5.73,11,5.4,11H3.6C3.27,11,3,10.73,3,10.4V9.6C3,9.27,3.27,9,3.6,9H5.4
	C5.73,9,6,9.27,6,9.6V10.4z"/>
<path fill="#496A87" d="M10,10.4c0,0.33-0.27,0.6-0.6,0.6H7.6C7.27,11,7,10.73,7,10.4V9.6C7,9.27,7.27,9,7.6,9H9.4
	C9.73,9,10,9.27,10,9.6V10.4z"/>
<path fill="#496A87" d="M14,10.4c0,0.33-0.27,0.6-0.6,0.6H11.6c-0.33,0-0.6-0.27-0.6-0.6V9.6C11,9.27,11.27,9,11.6,9H13.4
	C13.73,9,14,9.27,14,9.6V10.4z"/>
<path fill="#496A87" d="M14,6c0,0.55-0.45,1-1,1H4C3.45,7,3,6.55,3,6V4c0-0.55,0.45-1,1-1h9c0.55,0,1,0.45,1,1V6z"/>
<path fill="#496A87" d="M15,1c0.552,0,1,0.449,1,1v16c0,0.551-0.448,1-1,1H2c-0.552,0-1-0.449-1-1V2c0-0.551,0.448-1,1-1H15 M15,0H2
	C0.9,0,0,0.9,0,2v16c0,1.1,0.9,2,2,2h13c1.1,0,2-0.9,2-2V2C17,0.9,16.1,0,15,0L15,0z"/>
</svg>
