<?xml version="1.0" encoding="utf-8"?>
<!-- Generator: Adobe Illustrator 16.0.3, SVG Export Plug-In . SVG Version: 6.00 Build 0)  -->
<!DOCTYPE svg PUBLIC "-//W3C//DTD SVG 1.0//EN" "http://www.w3.org/TR/2001/REC-SVG-20010904/DTD/svg10.dtd">
<svg version="1.0" id="Layer_1" xmlns="http://www.w3.org/2000/svg" xmlns:xlink="http://www.w3.org/1999/xlink" x="0px" y="0px"
	 width="13px" height="13px" viewBox="0 0 13 13" enable-background="new 0 0 13 13" xml:space="preserve">
<rect fill="none" width="13" height="13"/>
<linearGradient id="papir_1_" gradientUnits="userSpaceOnUse" x1="0.875" y1="2.125" x2="10.3754" y2="11.6254">
	<stop  offset="0" style="stop-color:#FFFFFF"/>
	<stop  offset="1" style="stop-color:#B5E6FF"/>
</linearGradient>
<polygon id="papir_5_" fill="url(#papir_1_)" points="10.5,11.5 2.5,11.5 2.5,0.5 7,0.5 10.5,4 "/>
<polygon id="skygge_1_" opacity="0.2" fill="#00273B" points="7,4 7,1 6.5,1 6.5,5 10,5 10,4 "/>
<linearGradient id="PDF_2_" gradientUnits="userSpaceOnUse" x1="6.5" y1="0" x2="6.5" y2="12">
	<stop  offset="0" style="stop-color:#94D2F2"/>
	<stop  offset="1" style="stop-color:#01488A"/>
</linearGradient>
<path id="PDF_1_" fill="url(#PDF_2_)" d="M10.705,3.291l-3-3C7.524,0.111,7.275,0,7,0H2v12h9V4C11,3.723,10.887,3.472,10.705,3.291z
	 M8,2l1,1H8V2z M10,11H3V1h4v2v1h1h2V11z"/>
</svg>
