<?xml version="1.0" encoding="utf-8"?>
<!-- Generator: Adobe Illustrator 16.0.3, SVG Export Plug-In . SVG Version: 6.00 Build 0)  -->
<!DOCTYPE svg PUBLIC "-//W3C//DTD SVG 1.0//EN" "http://www.w3.org/TR/2001/REC-SVG-20010904/DTD/svg10.dtd">
<svg version="1.0" id="Layer_1" xmlns="http://www.w3.org/2000/svg" xmlns:xlink="http://www.w3.org/1999/xlink" x="0px" y="0px"
	 width="13px" height="13px" viewBox="0 0 13 13" enable-background="new 0 0 13 13" xml:space="preserve">
<rect fill="none" width="13" height="13"/>
<linearGradient id="papir_1_" gradientUnits="userSpaceOnUse" x1="6" y1="0" x2="6" y2="5">
	<stop  offset="0" style="stop-color:#94D2F2"/>
	<stop  offset="1" style="stop-color:#007AB8"/>
</linearGradient>
<rect id="papir_3_" x="2.5" y="0.5" fill="#FFFFFF" stroke="url(#papir_1_)" stroke-miterlimit="10" width="7" height="4"/>
<linearGradient id="printerkrop_2_" gradientUnits="userSpaceOnUse" x1="6" y1="5" x2="6" y2="10">
	<stop  offset="0" style="stop-color:#F0F0F0"/>
	<stop  offset="1" style="stop-color:#9BC8E3"/>
</linearGradient>
<rect id="printerkrop_1_" x="1" y="5" fill="url(#printerkrop_2_)" width="10" height="5"/>
<path id="printer_1_" fill="#005291" d="M10,11c1.1,0,2-0.9,2-2V6c0-1.1-0.9-2-2-2H2C0.9,4,0,4.9,0,6v3c0,1.1,0.9,2,2,2H10z M11,9
	c0,0.551-0.448,1-1,1H2c-0.552,0-1-0.449-1-1V6c0-0.551,0.448-1,1-1h8c0.552,0,1,0.449,1,1V9z"/>
<rect id="papir_4_" x="2.5" y="9.5" fill="#FFFFFF" stroke="#007BB8" stroke-miterlimit="10" width="7" height="2"/>
<rect x="2" y="9" fill="#1B3980" width="8" height="1"/>
</svg>
