<?xml version="1.0" encoding="utf-8"?>
<!-- Generator: Adobe Illustrator 16.0.3, SVG Export Plug-In . SVG Version: 6.00 Build 0)  -->
<!DOCTYPE svg PUBLIC "-//W3C//DTD SVG 1.1//EN" "http://www.w3.org/Graphics/SVG/1.1/DTD/svg11.dtd">
<svg version="1.1" id="logoer" xmlns="http://www.w3.org/2000/svg" xmlns:xlink="http://www.w3.org/1999/xlink" x="0px" y="0px"
	 width="170.079px" height="90.708px" viewBox="0 0 170.079 90.708" enable-background="new 0 0 170.079 90.708"
	 xml:space="preserve">
<g id="bomærke">
	<path fill="#FFFFFF" d="M170.079,31.795c0,17.556-14.229,31.792-31.793,31.792c-17.557,0-31.793-14.236-31.793-31.792
		C106.493,14.234,120.729,0,138.286,0C155.849,0,170.079,14.234,170.079,31.795z"/>
	<path fill="#FFC61E" d="M138.286,56.465c13.604,0,24.671-11.067,24.671-24.671c0-13.604-11.067-24.672-24.671-24.672V1.59
		c16.654,0,30.203,13.549,30.203,30.204c0,16.654-13.548,30.203-30.203,30.203V56.465z"/>
	
		<linearGradient id="SVGID_1_" gradientUnits="userSpaceOnUse" x1="-1282.9111" y1="-125.4292" x2="-1282.9111" y2="-65.0229" gradientTransform="matrix(1 0 0 -1 1406.0947 -63.4326)">
		<stop  offset="0" style="stop-color:#FEF4D1"/>
		<stop  offset="0.1101" style="stop-color:#FEF2C8"/>
		<stop  offset="0.2897" style="stop-color:#FEEBB0"/>
		<stop  offset="0.5165" style="stop-color:#FEE188"/>
		<stop  offset="0.7788" style="stop-color:#FFD351"/>
		<stop  offset="1" style="stop-color:#FFC61E"/>
	</linearGradient>
	<path fill="url(#SVGID_1_)" d="M138.286,61.997c-16.653,0-30.204-13.549-30.204-30.203c0-16.655,13.549-30.204,30.204-30.204v5.532
		c-13.604,0-24.672,11.067-24.672,24.672c0,13.603,11.068,24.671,24.672,24.671V61.997z"/>
	<path id="krone" fill="#3F6075" d="M149.399,29.262c0.026,0.551-0.003,1.571-1.236,2.553c-0.936,0.75-1.746,0.911-1.51,1.708
		c0.095,0.325,0.027,1.782-1.046,2.041c-0.467,0.113-0.596,1.312-0.149,1.609c0.217,0.143,0.681,0.317,1.28,0.239
		c0.518-0.069,0.935-0.753,0.471-1.439c-0.452-0.658-0.197-2.11,0.685-2.293c0.543-0.113,1.063-0.021,2.195-1.182
		C151.171,31.385,151.366,29.179,149.399,29.262 M126.493,32.497c1.132,1.162,1.652,1.071,2.197,1.182
		c0.872,0.184,1.129,1.636,0.683,2.293c-0.467,0.687-0.05,1.371,0.467,1.44c0.6,0.078,1.067-0.097,1.281-0.24
		c0.451-0.297,0.319-1.496-0.147-1.609c-1.081-0.258-1.141-1.716-1.049-2.04c0.238-0.799-0.578-0.958-1.514-1.708
		c-1.23-0.983-1.256-2.002-1.236-2.554C125.21,29.179,125.404,31.385,126.493,32.497z M137.284,28.811
		c-2.835,0.251-5.01-1.337-5.945-1.363c-0.432-0.009-1.049,0.09-1.219,0.933c0,0-0.181,0.976,0,1.615
		c0.427,1.498,1.587,2.533,2.516,2.774c1.471,0.393,1.347,1.821,0.916,2.36c-0.183,0.24-1.09,1.717,1.259,1.679
		c1.432-0.023,2.178-1.605,0.772-1.877c-0.69-0.136-1.217-1.822,0-2.613c0.8-0.524,1.493-0.981,1.586-1.929
		C137.242,30.045,137.284,28.811,137.284,28.811z M139.412,30.388c0.229,0.925,0.788,1.404,1.586,1.928
		c1.216,0.792,0.689,2.479,0,2.613c-1.402,0.272-0.659,1.855,0.771,1.878c2.341,0.038,1.439-1.439,1.255-1.68
		c-0.429-0.538-0.552-1.967,0.917-2.359c0.934-0.242,2.197-1.249,2.518-2.774c0.265-0.84,0-1.614,0-1.614
		c-0.169-0.843-0.788-0.942-1.214-0.933c-0.939,0.027-3.113,1.615-5.954,1.363C139.292,28.811,139.267,29.789,139.412,30.388z
		 M138.247,43.551c-8.097,0-10.025-3.049-10.025-3.049c-0.003-5.135-1.659-5.818-3.135-6.776c-3.78-2.46-1.727-7.458,2.45-6.166
		c1.135-2.314,4.204-2.954,6.57-0.953c0.472,0.395,1.429,1.025,2.849,1.161c0.371,0.037,0.341-0.228,0.341-0.415
		c-1.109-0.316-1.834-1.245-1.825-2.472c0.015-1.355,0.85-2.505,2.115-2.638v-0.476c0-0.402-0.345-0.365-0.345-0.365h-0.605
		c-0.2,0.343-0.395,0.585-1.054,0.565c-0.706-0.018-1.092-0.588-1.095-1.221c-0.008-0.641,0.413-1.228,1.113-1.255
		c0.622-0.022,0.807,0.262,1.03,0.605h0.725c0.422,0,0.443-0.173,0.443-0.628c-0.36-0.249-0.679-0.363-0.679-1.183
		c0-0.704,0.468-1.204,1.176-1.216c0.703,0.011,1.168,0.512,1.168,1.216c0,0.821-0.325,0.934-0.683,1.183
		c0,0.455,0.023,0.628,0.446,0.628h0.716c0.221-0.345,0.413-0.628,1.032-0.605c0.705,0.027,1.121,0.613,1.118,1.255
		c-0.008,0.632-0.39,1.202-1.097,1.221c-0.658,0.021-0.854-0.222-1.055-0.565h-0.605c0,0-0.343-0.037-0.343,0.365v0.476
		c1.261,0.149,2.099,1.283,2.114,2.638c0.01,1.226-0.722,2.141-1.826,2.472c0,0.187-0.03,0.451,0.341,0.415
		c1.421-0.134,2.38-0.764,2.848-1.161c2.368-2,5.442-1.361,6.569,0.953c4.183-1.292,6.229,3.706,2.455,6.166
		c-1.482,0.958-3.136,1.641-3.143,6.776C148.353,40.502,146.343,43.551,138.247,43.551z"/>
</g>
<g id="skat">
	<polygon fill="#3F6075" points="103.536,72.957 103.536,75.994 114.972,75.994 114.972,89.779 126.876,89.779 126.876,75.994 
		138.311,75.994 138.311,72.957 	"/>
	<path fill="#3F6075" d="M68.171,72.957h-5.955c0,0-11.089,6.941-11.26,7.029c-0.638,0.329-0.984,0.286-2.39,0.286v-7.313H36.792
		v16.821h11.775V83.37c1.748-0.038,1.878,0.167,2.36,0.648l5.308,5.761h13.762L58.494,79.101L68.171,72.957z"/>
	<path fill="#3F6075" d="M94.796,72.957H81.503l-9.865,16.822h4.976l2.209-3.769h11.314l2.209,3.769h12.314L94.796,72.957z
		 M80.065,82.978l3.66-6.276c0.167-0.284,0.428-0.458,0.758-0.458c0.318,0,0.583,0.169,0.75,0.458l3.659,6.276H80.065z"/>
	<path fill="#3F6075" d="M10.019,72.479L10.019,72.479c-0.05,0.001-0.661,0.022-0.882,0.03c-8.585,0.287-9.033,0.42-9.057,4.834
		l0.002,1.084c0.032,4.275,0.564,4.427,9.072,4.712c0.219,0.008,1.857,0.052,1.857,0.052c0.986,0,2.796-0.002,3.47,0.009
		c2.813,0.05,3.159,0.341,3.159,2.084c-0.001,1.742-0.345,2.034-3.159,2.083c-0.687,0.013-2.79,0.01-3.8,0.01
		c-0.248,0-0.493-0.003-0.74-0.004h0.006C7.411,87.375,0,86.987,0,87.043v2.806c0,0,12.951,0.685,19.929,0.451
		c0,0,0.462-0.012,0.676-0.023c8.587-0.288,9.032-0.442,9.056-4.858l-0.001-1.245c-0.032-4.414-0.627-4.593-9.836-4.897
		c0,0-0.697-0.011-1.092-0.018c-1.014,0-1.167,0.002-1.95-0.004v0.004c-4.84,0-5.292,0.061-5.354-1.776c0-0.034,0-0.322,0.001-0.357
		c0.065-1.839,0.655-1.775,5.543-1.775h3.031c2.138,0,7.215,0.274,8.76,0.328v-2.771C26.486,72.788,16.199,72.273,10.019,72.479z"/>
</g>
</svg>
