<?xml version="1.0" encoding="UTF-8" standalone="no"?>
<svg
   xmlns:dc="http://purl.org/dc/elements/1.1/"
   xmlns:cc="http://web.resource.org/cc/"
   xmlns:rdf="http://www.w3.org/1999/02/22-rdf-syntax-ns#"
   xmlns:svg="http://www.w3.org/2000/svg"
   xmlns="http://www.w3.org/2000/svg"
   xmlns:sodipodi="http://sodipodi.sourceforge.net/DTD/sodipodi-0.dtd"
   xmlns:inkscape="http://www.inkscape.org/namespaces/inkscape"
   version="1.1"
   baseProfile="full"
   preserveAspectRatio="xMidYMid meet"
   zoomAndPan="magnify"
   id="Flag_of_New_Zealand"
   viewBox="-15 -7.5 30 15"
   width="1200"
   height="600"
   sodipodi:version="0.32"
   inkscape:version="0.45.1"
   sodipodi:docname="United Kingdom.svg"
   inkscape:output_extension="org.inkscape.output.svg.inkscape"
   sodipodi:docbase="C:\Documents and Settings\Peter\My Documents\My Pictures\Flag Designs\Others\html\way\vw\vexi\VexiWiki\svgs">
  <metadata
     id="metadata2285">
    <rdf:RDF>
      <cc:Work
         rdf:about="">
        <dc:format>image/svg+xml</dc:format>
        <dc:type
           rdf:resource="http://purl.org/dc/dcmitype/StillImage" />
      </cc:Work>
    </rdf:RDF>
  </metadata>
  <sodipodi:namedview
     inkscape:window-height="712"
     inkscape:window-width="1024"
     inkscape:pageshadow="2"
     inkscape:pageopacity="0.0"
     guidetolerance="10.0"
     gridtolerance="10.0"
     objecttolerance="10.0"
     borderopacity="1.0"
     bordercolor="#666666"
     pagecolor="#ffffff"
     id="base"
     inkscape:zoom="0.7825"
     inkscape:cx="600"
     inkscape:cy="300"
     inkscape:window-x="-4"
     inkscape:window-y="-4"
     inkscape:current-layer="Flag_of_New_Zealand"
     borderlayer="true" />
  <defs
     id="defs2257">
    <clipPath
       id="border">
      <rect
         x="-15"
         y="-7.5"
         width="30"
         height="15"
         id="rect2260" />
    </clipPath>
    <comment
       id="comment2274">I think the above two lines give the simplest way to make the diagonals</comment>
  </defs>
  <comment
     id="comment2264">The above line is the ensign field color: #CF142B red and #00247D blue</comment>
  <rect
     x="-15"
     y="-7.5"
     width="30"
     height="15"
     id="rect2262"
     style="fill:#000080" />
  <path
     style="fill:#ffffff;fill-opacity:1;stroke:none;stroke-width:1.5;stroke-opacity:1"
     d="M -15,-7.5 L -15,-5.84375 L -3.3125,0 L -15,5.84375 L -15,7.5 L -11.710938,7.5 L 0,1.625 L 11.71094,7.5 L 15,7.5 L 15,5.84375 L 3.3125,0 L 15,-5.84375 L 15,-7.5 L 11.71094,-7.5 L 0,-1.625 L -11.710938,-7.5 L -15,-7.5 z "
     id="path2503" />
  <path
     style="fill:#d40000;fill-opacity:1;stroke:none;stroke-width:1;stroke-opacity:1"
     d="M -15,7.5 L -12.790625,7.5 L 8.3266727e-016,1.125 L 12.790625,7.5 L 15,7.5 L 15,6.40625 L 2.1875,4.1633363e-016 L 15,-6.40625 L 15,-7.5 L 12.790625,-7.5 L 8.3266727e-016,-1.125 L -12.790625,-7.5 L -15,-7.5 L -15,-6.40625 L -2.1875,4.1633363e-016 L -15,6.40625 L -15,7.5 z "
     id="path2510" />
  <path
     style="fill:#ffffff;stroke:none"
     d="M -3,4.1633363e-016 L -15,6 L -15,7.5 L -1.5,0.75 L 12,7.5 L 15,7.5 L 8.3266727e-016,4.1633363e-016 L -3,4.1633363e-016 z "
     id="path2303" />
  <path
     style="fill:#ffffff;stroke:none"
     d="M -15,-7.5 L 0,0 L 3,0 L 15,-6 L 15,-7.5 L 1.5,-0.75 L -12,-7.5 L -15,-7.5 z "
     id="path2431" />
  <path
     style="fill:#ffffff;fill-opacity:1;stroke:none;stroke-width:2.5;stroke-opacity:1"
     d="M -2.5,-7.5 L -2.5,-2.5 L -15,-2.5 L -15,2.5 L -2.5,2.5 L -2.5,7.5 L 2.5,7.5 L 2.5,2.5 L 15,2.5 L 15,-2.5 L 2.5,-2.5 L 2.5,-7.5 L -2.5,-7.5 z "
     id="path2363" />
  <path
     style="fill:#d40000;fill-opacity:1;stroke:none;stroke-width:1.5;stroke-opacity:1"
     d="M -15,-1.5 L -15,1.5 L -1.5,1.5 L -1.5,7.5 L 1.5,7.5 L 1.5,1.5 L 15,1.5 L 15,-1.5 L 1.5,-1.5 L 1.5,-7.5 L -1.5,-7.5 L -1.5,-1.5 L -15,-1.5 z "
     id="path2330" />
</svg>
